# xmcd
# 
# Track frame offsets:
#     150
#     20294
#     37789
#     54514
#     73182
#     93707
#     116395
#     130270
#     147778
#     166970
#     185641
#     204085
#     224830
#     244651
# 
# Disc length: 3508
# 
# Revision: 2
# Processed by: cddbd v1.5.2PL0 Copyright (c) Steve Scherf et al.
# Submitted via: fre:ac v1.0.31
# 
DISCID=c70db20e
DTITLE=Marco Borsato - Duizend Spiegels
DYEAR=2013
DGENRE=Pop
TTITLE0=Het Beste Wat Ik Ooit Had
TTITLE1=De Weg Terug
TTITLE2=Terug
TTITLE3=Ik Zou Het Zo Weer Overdoen (Met Trijntje Oosterhuis)
TTITLE4=Stem (Met Gers Pardoel)
TTITLE5=Verlies
TTITLE6=Zoals Je Bent (Met Lisa Lois)
TTITLE7=Bang Voor Water
TTITLE8=Woorden
TTITLE9=Samen Voor Altijd (Met Jada Borsato, Willem Frederiks, Lange Frans, Day Ewbank and John Ewbank)
TTITLE10=Alles Wat Stijgt
TTITLE11=Breng Jij Mij Naar Huis
TTITLE12=Muziek (Met Bag2Bank and Ali B.)
TTITLE13=Breng Jij Mij Naar Huis (Met Showtek)
EXTD=
EXTT0=
EXTT1=
EXTT2=
EXTT3=
EXTT4=
EXTT5=
EXTT6=
EXTT7=
EXTT8=
EXTT9=
EXTT10=
EXTT11=
EXTT12=
EXTT13=
PLAYORDER=
